<?xml version="1.0" ?>
<!DOCTYPE svg  PUBLIC '-//W3C//DTD SVG 1.1//EN'  'http://www.w3.org/Graphics/SVG/1.1/DTD/svg11.dtd'>
<!-- Uploaded to: SVG Repo, www.svgrepo.com, Generator: SVG Repo Mixer Tools -->
<svg fill="#000000" width="800px" height="800px" viewBox="0 0 512 512" enable-background="new 0 0 512 512" id="Short_x5F_pants_x5F_men" version="1.1" xml:space="preserve" xmlns="http://www.w3.org/2000/svg" xmlns:xlink="http://www.w3.org/1999/xlink">
<g>
<path d="M264.045,97.588c0-3.807-3.083-6.9-6.9-6.9c-3.807,0-6.9,3.094-6.9,6.9c0,3.817,3.094,6.899,6.9,6.899   C260.962,104.487,264.045,101.405,264.045,97.588z"/>
<path d="M158.896,85.225h1.15c1.906,0,3.45-1.544,3.45-3.449c0-1.906-1.544-3.45-3.45-3.45h-1.15c-1.905,0-3.449,1.544-3.449,3.45   C155.447,83.681,156.991,85.225,158.896,85.225z"/>
<path d="M413.152,297.111l0.095,1.152c0.147,1.803,1.657,3.168,3.435,3.168c0.095,0,0.189-0.003,0.285-0.012   c1.899-0.155,3.313-1.821,3.157-3.72l-0.094-1.152c-0.156-1.897-1.809-3.308-3.722-3.157   C414.41,293.547,412.998,295.213,413.152,297.111z"/>
<path d="M422.01,320.708c-0.156-1.899-1.827-3.309-3.721-3.157c-1.898,0.156-3.312,1.821-3.156,3.721l5.464,66.717l-69.848,8.053   c-8.466-47.604-24.092-152.126-24.252-153.201c-0.28-1.884-2.038-3.188-3.922-2.901c-1.885,0.28-3.184,2.037-2.901,3.921   c0.159,1.072,15.707,105.072,24.208,152.974l-76.794,8.854l-7.654-95.911c-0.144-1.794-1.641-3.177-3.439-3.177   s-3.296,1.383-3.438,3.177l-7.64,95.913l-76.798-8.855c8.501-47.902,24.049-151.902,24.208-152.975   c0.282-1.884-1.018-3.641-2.901-3.921c-1.888-0.286-3.642,1.018-3.922,2.901c-0.16,1.075-15.787,105.599-24.252,153.202   l-69.849-8.054l15.132-184.794c37.063-28.04,54.619-74.989,58.44-86.333h86.42V218.43c0,1.906,1.544,3.45,3.449,3.45   c14.586,0,26.451-11.865,26.451-26.45v-78.568h65.731c3.82,11.343,21.376,58.291,58.437,86.331l5.807,70.919   c0.147,1.804,1.657,3.168,3.435,3.168c0.095,0,0.19-0.003,0.285-0.011c1.899-0.156,3.313-1.821,3.157-3.721L402.424,81.494   c-0.147-1.791-1.642-3.169-3.438-3.169H183.057c-1.905,0-3.449,1.544-3.449,3.45c0,1.905,1.544,3.449,3.449,3.449h8.101v24.736   h-76.988l2.024-24.736h19.703c1.906,0,3.45-1.544,3.45-3.449c0-1.906-1.544-3.45-3.45-3.45h-22.882   c-1.797,0-3.292,1.378-3.438,3.169L82.551,411.543c-0.151,1.856,1.196,3.497,3.046,3.709l73.485,8.43   c0.029,0.004,0.059,0.008,0.089,0.01l86.851,9.961c0.935,0.104,1.865-0.169,2.586-0.764c0.723-0.595,1.172-1.457,1.246-2.391   l1.621-20.409c0.017-0.096,0.027-0.192,0.035-0.29l4.486-56.327l4.504,56.415c0.002,0.012,0,0.021,0.001,0.033   c0.001,0.006,0.003,0.012,0.004,0.018l1.642,20.563c0.074,0.933,0.524,1.795,1.246,2.389c0.621,0.512,1.397,0.786,2.192,0.786   c0.131,0,0.262-0.008,0.394-0.022l86.906-9.969c0.008-0.001,0.015,0,0.021-0.002l73.497-8.43c1.85-0.212,3.197-1.853,3.046-3.709   L422.01,320.708z M274.395,195.43c0,9.604-6.96,17.61-16.1,19.246v-97.814h16.1V195.43z M404.688,193.731   c-29.825-25.276-45.633-63.871-50.331-76.87h44.038L404.688,193.731z M320.842,85.225h74.964l2.025,24.736h-76.989V85.225z    M198.058,85.225h115.885v24.736h-36.099h-23h-56.786V85.225z M113.604,116.861h44.039c-4.699,13-20.508,51.596-50.334,76.872   L113.604,116.861z M157.207,416.521L89.7,408.778l1.139-13.909l69.176,7.977C158.571,410.6,157.706,414.539,157.207,416.521z    M243.259,426.391l-79.136-9.076c0.135-0.579,0.271-1.191,0.414-1.836c0.632-2.854,1.422-6.838,2.35-11.84l77.47,8.933   L243.259,426.391z M268.74,426.391l-1.104-13.82l77.468-8.932c1.141,6.296,1.959,10.669,2.71,13.682L268.74,426.391z    M354.781,416.521c-0.5-1.984-1.364-5.924-2.8-13.676l69.179-7.977l1.14,13.909L354.781,416.521z"/>
</g>
</svg>